<svg viewBox="0 0 55 57" xmlns="http://www.w3.org/2000/svg" fill-rule="evenodd" clip-rule="evenodd" stroke-linecap="round" stroke-linejoin="round" stroke-miterlimit="1.5"><circle cx="27.513" cy="29.24" r="26.919" fill="#7e8abd"/><clipPath id="a"><circle cx="27.513" cy="29.24" r="26.919"/></clipPath><g clip-path="url(#a)"><path d="M49.55 47.519c0-5.987-4.861-10.848-10.849-10.848H16.65c-5.988 0-10.849 4.861-10.849 10.848v2.645c0 5.987 4.861 10.848 10.849 10.848h22.051c5.988 0 10.849-4.861 10.849-10.848v-2.645z" fill="#efeff1"/></g><circle cx="27.513" cy="29.24" r="26.919" fill="none" stroke="#43455b" stroke-width=".95"/><path d="M14.057 17.302a4.131 4.131 0 0 0-4.983.656v5.838a4.128 4.128 0 0 0 4.983.656v-7.15zm27.237 0a4.129 4.129 0 0 1 4.983.656v5.838a4.128 4.128 0 0 1-4.983.656v-7.15z" fill="#6341a5"/><path d="M10.586 19.739a17.396 17.396 0 0 1-.141-2.214c0-9.51 7.721-17.231 17.23-17.231 9.51 0 17.231 7.721 17.231 17.231 0 .75-.048 1.489-.141 2.214-.887-1.401-.948-1.852-2.149-2.99-.799-6.99-7.739-13.259-14.941-13.259-7.202 0-14.081 6.269-14.88 13.259-1.201 1.138-1.322 1.589-2.209 2.99z" fill="#6341a5"/><circle cx="27.675" cy="21.894" r="13.618" fill="#efeff1"/></svg>