<?xml version="1.0" encoding="UTF-8" standalone="no"?><!DOCTYPE svg PUBLIC "-//W3C//DTD SVG 1.1//EN" "http://www.w3.org/Graphics/SVG/1.1/DTD/svg11.dtd"><svg width="100%" height="100%" viewBox="0 0 55 57" version="1.1" xmlns="http://www.w3.org/2000/svg" xmlns:xlink="http://www.w3.org/1999/xlink" xml:space="preserve" xmlns:serif="http://www.serif.com/" style="fill-rule:evenodd;clip-rule:evenodd;stroke-linecap:round;stroke-linejoin:round;stroke-miterlimit:1.5;"><g id="user-icon"><circle cx="27.513" cy="29.24" r="26.919" style="fill:#7e8abd;"/><clipPath id="_clip1"><circle cx="27.513" cy="29.24" r="26.919"/></clipPath><g clip-path="url(#_clip1)"><path d="M49.55,47.519c0,-5.987 -4.861,-10.848 -10.849,-10.848l-22.051,0c-5.988,0 -10.849,4.861 -10.849,10.848l0,2.645c0,5.987 4.861,10.848 10.849,10.848l22.051,0c5.988,0 10.849,-4.861 10.849,-10.848l0,-2.645Z" style="fill:#efeff1;"/></g><circle cx="27.513" cy="29.24" r="26.919" style="fill:none;stroke:#43455b;stroke-width:0.95px;"/><path d="M14.057,17.302c-0.628,-0.362 -1.339,-0.553 -2.064,-0.553c-1.095,0 -2.145,0.435 -2.919,1.209l0,5.838c0.774,0.774 1.824,1.209 2.919,1.209c0.725,0 1.436,-0.191 2.064,-0.553l0,-7.15Z" style="fill:#6341a5;"/><path d="M41.294,17.302c0.627,-0.362 1.339,-0.553 2.064,-0.553c1.095,0 2.145,0.435 2.919,1.209l0,5.838c-0.774,0.774 -1.824,1.209 -2.919,1.209c-0.725,0 -1.437,-0.191 -2.064,-0.553l0,-7.15Z" style="fill:#6341a5;"/><path d="M10.586,19.739c-0.093,-0.725 -0.141,-1.464 -0.141,-2.214c0,-9.51 7.721,-17.231 17.23,-17.231c9.51,0 17.231,7.721 17.231,17.231c0,0.75 -0.048,1.489 -0.141,2.214c-0.887,-1.401 -0.948,-1.852 -2.149,-2.99c-0.799,-6.99 -7.739,-13.259 -14.941,-13.259c-7.202,0 -14.081,6.269 -14.88,13.259c-1.201,1.138 -1.322,1.589 -2.209,2.99Z" style="fill:#6341a5;"/><circle cx="27.675" cy="21.894" r="13.618" style="fill:#efeff1;"/></g></svg>